<svg width="32" height="32" viewBox="0 0 32 32" fill="none" xmlns="http://www.w3.org/2000/svg">
<g clip-path="url(#clip0_774_6722)">
<path d="M16.6511 7.19014C17.2992 6.38144 17.6464 5.31859 17.6198 4.22489C17.5932 3.13119 17.1949 2.09179 16.5085 1.32506C15.8221 0.558335 14.9011 0.123974 13.939 0.113241C12.9768 0.102508 12.0485 0.516238 11.349 1.2675L1.06778 13.1542C0.385162 13.9444 0.00268555 15.0078 0.00268555 16.1155C0.00268555 17.2232 0.385162 18.2866 1.06778 19.0769L11.1433 30.7296C11.8394 31.4997 12.7729 31.9294 13.7441 31.9266C14.7152 31.9238 15.6468 31.4888 16.3395 30.7147C17.0321 29.9406 17.4308 28.8889 17.4501 27.7848C17.4694 26.6806 17.1078 25.6118 16.4428 24.807L12.5157 20.2584L28.3126 20.1725C28.8006 20.1681 29.283 20.0543 29.7324 19.8378C30.1818 19.6213 30.5892 19.3063 30.9315 18.9108C31.2738 18.5152 31.5442 18.0468 31.7274 17.5324C31.9105 17.018 32.0027 16.4676 31.9988 15.9127C31.9948 15.3578 31.8948 14.8091 31.7044 14.2981C31.5141 13.7872 31.237 13.3238 30.8892 12.9346C30.5413 12.5453 30.1294 12.2378 29.6771 12.0296C29.2247 11.8214 28.7407 11.7165 28.2527 11.7209L12.6667 11.8039L16.6511 7.19014Z" fill="#4F89CB"/>
</g>
<defs>
<clipPath id="clip0_774_6722">
<rect width="32" height="32" fill="white"/>
</clipPath>
</defs>
</svg>
