<svg width="25" height="25" viewBox="0 0 25 25" fill="none" xmlns="http://www.w3.org/2000/svg">
<path d="M10.1702 0H10.1734V0.00142417C12.9809 0.00223798 15.523 1.14096 17.3626 2.98098C19.1992 4.81836 20.3369 7.35826 20.3387 10.1635H20.3401V10.1702V10.1783H20.3387C20.3377 11.3089 20.1522 12.397 19.811 13.4116C19.7538 13.5819 19.694 13.7454 19.6325 13.9017V13.9031C19.3384 14.6478 18.9581 15.3517 18.504 16.0001L24.4208 21.3181L24.4245 21.3214L24.4564 21.3511L24.4586 21.3533C24.7927 21.6713 24.9746 22.0972 24.9976 22.5293C25.02 22.9566 24.8871 23.3936 24.5949 23.7441L24.5927 23.7474L24.5571 23.7887L24.55 23.7958L24.5203 23.8283L24.517 23.8326C24.1986 24.1667 23.7736 24.3482 23.3411 24.371C22.9144 24.3935 22.477 24.2611 22.1263 23.9685L22.1232 23.9663L22.0817 23.9307L22.0758 23.9258L16.0241 18.4867C15.8451 18.6128 15.6624 18.7327 15.4774 18.8458C15.2266 18.9994 14.9668 19.1441 14.7017 19.2761C13.3387 19.956 11.7986 20.3385 10.1704 20.3385V20.3399H10.1671V20.3385C7.35969 20.3377 4.81714 19.199 2.97753 17.359C1.14035 15.5216 0.00325524 12.9813 0.00142417 10.1769H0V10.1702V10.1669H0.00142417C0.00223798 7.35948 1.14096 4.81694 2.98098 2.97732C4.81836 1.14096 7.35826 0.00325524 10.1635 0.00142417V0H10.1702ZM10.1734 2.2807V2.28213H10.1702H10.1635V2.2807C7.98937 2.28213 6.01873 3.16572 4.59212 4.59172C3.16572 6.01771 2.28131 7.99039 2.2807 10.1671H2.28213V10.1704V10.1771H2.2807C2.28213 12.3512 3.16511 14.3208 4.59172 15.7478C6.01771 17.1744 7.99039 18.0588 10.1669 18.0592V18.0578H10.1702H10.1769V18.0592C12.351 18.0578 14.3208 17.1746 15.7478 15.7482C17.1742 14.3222 18.0586 12.3502 18.059 10.1736H18.0578V10.1704V10.1637H18.059C18.0578 7.98958 17.174 6.01894 15.7482 4.59233C14.3222 3.16572 12.3502 2.28131 10.1734 2.2807Z" fill="#4F89CB"/>
</svg>
