<svg width="19" height="27" viewBox="0 0 19 27" fill="none" xmlns="http://www.w3.org/2000/svg">
<path d="M14.0804 14.5611H8.54364C8.14717 14.5463 7.77185 14.3785 7.49657 14.0928C7.2213 13.807 7.0675 13.4258 7.0675 13.029C7.0675 12.6323 7.2213 12.251 7.49657 11.9653C7.77185 11.6795 8.14717 11.5117 8.54364 11.4969H14.0804L12.2821 9.49089C12.0138 9.18946 11.8747 8.79459 11.8949 8.39151C11.9152 7.98843 12.0931 7.60947 12.3903 7.33643C12.5365 7.20201 12.7079 7.09802 12.8947 7.0305C13.0814 6.96298 13.2797 6.93329 13.4781 6.94316C13.6764 6.95303 13.8708 7.00225 14.0499 7.08797C14.229 7.17369 14.3893 7.29419 14.5214 7.44246L18.5971 11.991C18.8532 12.2724 18.9962 12.6386 18.9986 13.0191C19.0009 13.3997 18.8625 13.7676 18.6098 14.0522L14.5214 18.6134C14.3896 18.7621 14.2295 18.883 14.0505 18.9691C13.8714 19.0551 13.677 19.1047 13.4786 19.1147C13.2801 19.1248 13.0817 19.0952 12.8948 19.0277C12.708 18.9602 12.5365 18.8561 12.3903 18.7216C12.0931 18.4485 11.9152 18.0696 11.8949 17.6665C11.8747 17.2634 12.0138 16.8685 12.2821 16.5671L14.0804 14.5611ZM9.10558 23.0241C9.30288 23.0635 9.49048 23.1414 9.65768 23.2533C9.82488 23.3652 9.9684 23.509 10.0801 23.6764C10.1917 23.8437 10.2693 24.0315 10.3084 24.2288C10.3475 24.4262 10.3473 24.6293 10.3079 24.8266C10.2685 25.0239 10.1906 25.2115 10.0787 25.3787C9.96683 25.5459 9.82308 25.6894 9.65571 25.8011C9.48833 25.9127 9.30061 25.9903 9.10325 26.0294C8.90589 26.0685 8.70276 26.0683 8.50547 26.0289L7.79085 25.8847C2.72277 24.8796 0 24.3092 0 17.0082V8.61723C0 1.62371 2.9221 1.07661 7.76116 0.173263L8.51819 0.0290667C8.91665 -0.0471386 9.32906 0.0380652 9.6647 0.265934C10.0003 0.493804 10.2317 0.845672 10.3079 1.24413C10.3841 1.64259 10.2989 2.05501 10.0711 2.39065C9.84318 2.72629 9.49132 2.95766 9.09286 3.03386L8.3231 3.1823C5.04475 3.79514 3.06417 4.16411 3.06417 8.62147V17.0082C3.06417 21.8027 4.92388 22.195 8.38672 22.8821L9.10558 23.0241Z" fill="#223260"/>
</svg>
