<svg width="25" height="34" viewBox="0 0 25 34" fill="none" xmlns="http://www.w3.org/2000/svg">
<path fill-rule="evenodd" clip-rule="evenodd" d="M21.9859 5.62078L21.9881 5.62618C22.821 5.62888 23.5728 6.03403 24.1176 6.68767C24.6578 7.33862 24.9955 8.23805 24.9955 9.23202H25V9.23742V29.5705V29.5732H24.9955C24.9932 30.5672 24.6556 31.472 24.1108 32.1284C23.5683 32.7766 22.8187 33.1818 21.9904 33.1818V33.1872H21.9859H8.66198H8.65973V33.1818C7.8291 33.1791 7.07501 32.7766 6.53025 32.1203C5.99001 31.4693 5.65235 30.5699 5.6501 29.5759C5.6501 22.5641 5.6501 16.2492 5.6501 9.23742V9.23472H5.6546C5.65685 8.23805 5.99676 7.33321 6.54151 6.67957C7.08401 6.03133 7.83135 5.62618 8.66198 5.62348V5.61808H8.66649C13.1055 5.62078 17.5468 5.62078 21.9859 5.62078ZM0.00450207 20.3601L0 3.61664V3.61394H0.00450207C0.00675311 2.61727 0.346659 1.71243 0.889159 1.05879C1.43166 0.410552 2.18125 0.005402 3.00963 0.002701V0H3.01414H16.338C18.0691 0 18.3414 2.6902 16.3403 2.74422H3.01639H3.01189V2.73881C2.81379 2.73881 2.63371 2.83875 2.5009 3.00081C2.36809 3.15747 2.2848 3.37895 2.2848 3.61394H2.2893V3.61664V4.47285C2.2893 9.76951 2.2893 15.0635 2.2893 20.3574C2.2893 22.5885 0.00450207 22.7127 0.00450207 20.3601ZM22.7152 29.5732V9.23742V9.23202H22.7197C22.7197 8.99703 22.6364 8.77825 22.5014 8.61889C22.3685 8.46223 22.1862 8.35959 21.9881 8.35959V8.365H21.9859H8.66198H8.65748V8.35959C8.45939 8.35959 8.27931 8.46223 8.1465 8.62159C8.01369 8.77825 7.9304 8.99973 7.9304 9.23472H7.9349V9.23742V29.5705V29.5759H7.9304C7.9304 29.8136 8.01594 30.0297 8.14875 30.1891C8.28156 30.3484 8.46389 30.4484 8.65973 30.4484V30.443H8.66198H21.9859H21.9904V30.4484C22.1862 30.4484 22.3685 30.3457 22.5014 30.1864C22.6342 30.0297 22.7175 29.8082 22.7175 29.5732H22.7152Z" fill="#4F89CB"/>
</svg>
