<svg width="110" height="128" viewBox="0 0 110 128" fill="none" xmlns="http://www.w3.org/2000/svg">
<path fill-rule="evenodd" clip-rule="evenodd" d="M81.0333 69.7839C89.0177 69.7839 96.2512 73.029 101.494 78.2696C106.755 83.5077 110 90.7537 110 98.7481C110 106.745 106.755 113.991 101.514 119.229L101.185 119.533C95.9669 124.594 88.8605 127.715 81.0333 127.715C73.0365 127.715 65.793 124.47 60.5549 119.229C55.3143 113.991 52.0692 106.745 52.0692 98.7481C52.0692 90.7512 55.3143 83.5077 60.5549 78.2696C65.793 73.029 73.0365 69.7839 81.0333 69.7839ZM60.6397 9.49841V23.0127C60.8866 26.2379 62.0116 28.7721 63.9871 30.4583C66.0324 32.2068 69.0905 33.1871 73.1388 33.2594L82.5973 33.2494L60.6397 9.49841ZM83.3905 39.5526L73.0889 39.5426C67.4791 39.4553 63.0592 37.9463 59.8939 35.2424C56.5939 32.4213 54.7356 28.4204 54.359 23.4617L54.3315 23.0277V6.30816H15.6819C13.1027 6.30816 10.7556 7.36326 9.05941 9.05941C7.36327 10.7556 6.30816 13.1027 6.30816 15.6819V99.6136C6.30816 102.183 7.36825 104.53 9.06689 106.229C10.763 107.925 13.1127 108.985 15.6819 108.985H45.4667C46.1002 111.177 46.9308 113.288 47.941 115.293H15.6819C11.3717 115.293 7.44558 113.527 4.60453 110.688C1.76599 107.847 0 103.924 0 99.6136V15.6819C0 11.3766 1.76599 7.45555 4.60204 4.61701C7.45556 1.76599 11.3766 0 15.6819 0H59.0533C60.0785 0 60.9889 0.488889 61.5651 1.24717L88.8506 30.7651C89.4093 31.3712 89.6837 32.1345 89.6837 32.8977L89.6912 62.7599C87.6508 62.2685 85.5456 61.9492 83.3905 61.8145V39.5526ZM26.0807 53.1442C24.3397 53.1442 22.9279 51.7324 22.9279 49.9914C22.9279 48.2478 24.3397 46.8361 26.0807 46.8361H63.6179C65.359 46.8361 66.7732 48.2478 66.7732 49.9914C66.7732 51.7324 65.359 53.1442 63.6179 53.1442H26.0807ZM26.0807 71.1782C24.3397 71.1782 22.9279 69.7664 22.9279 68.0229C22.9279 66.2819 24.3397 64.8701 26.0807 64.8701H61.6299C62.5553 64.8701 63.3884 65.2692 63.9671 65.9052C61.2179 67.3383 58.6588 69.1098 56.3494 71.1782H26.0807ZM26.0807 89.2122C24.3397 89.2122 22.9279 87.8004 22.9279 86.0569C22.9279 84.3159 24.3397 82.9041 26.0807 82.9041H47.5819C46.629 84.912 45.8483 87.0222 45.2646 89.2122H26.0807ZM95.241 95.5678V101.1C95.241 102.178 94.3281 103.088 93.2506 103.088H85.7925V110.549C85.7925 111.629 84.8821 112.537 83.802 112.537H78.2696C77.1896 112.537 76.2791 111.641 76.2791 110.549V103.088H68.8186C67.741 103.088 66.8306 102.193 66.8306 101.1V95.5678C66.8306 94.4753 67.7261 93.5798 68.8186 93.5798H76.2791V86.1193C76.2791 85.0243 77.1746 84.1313 78.2696 84.1313H83.802C84.897 84.1313 85.7925 85.0392 85.7925 86.1193V93.5798H93.2506C94.3456 93.5798 95.241 94.5027 95.241 95.5678Z" fill="#4F89CB"/>
</svg>
