<svg width="110" height="128" viewBox="0 0 110 128" fill="none" xmlns="http://www.w3.org/2000/svg">
<path fill-rule="evenodd" clip-rule="evenodd" d="M81.0333 69.7839C89.0177 69.7839 96.2512 73.029 101.494 78.2696C106.755 83.5077 110 90.7537 110 98.7481C110 106.745 106.755 113.991 101.514 119.229L101.185 119.533C95.9669 124.594 88.8605 127.715 81.0333 127.715C73.0365 127.715 65.793 124.47 60.5549 119.229C55.3143 113.991 52.0692 106.745 52.0692 98.7481C52.0692 90.7513 55.3143 83.5077 60.5549 78.2696C65.793 73.029 73.0365 69.7839 81.0333 69.7839ZM60.6397 9.49841V23.0127C60.8866 26.2379 62.0116 28.7721 63.9871 30.4583C66.0324 32.2068 69.0905 33.1871 73.1388 33.2594L82.5973 33.2494L60.6397 9.49841ZM83.3905 39.5526L73.0889 39.5426C67.4791 39.4553 63.0592 37.9463 59.8939 35.2424C56.5939 32.4213 54.7356 28.4204 54.359 23.4617L54.3315 23.0277V6.30816H15.6819C13.1027 6.30816 10.7556 7.36327 9.05941 9.05941C7.36327 10.7556 6.30816 13.1027 6.30816 15.6819V99.6136C6.30816 102.183 7.36825 104.53 9.06689 106.229C10.763 107.925 13.1127 108.985 15.6819 108.985H45.4667C46.1002 111.177 46.9308 113.288 47.941 115.293H15.6819C11.3717 115.293 7.44558 113.527 4.60453 110.688C1.76599 107.847 0 103.924 0 99.6136V15.6819C0 11.3766 1.76599 7.45556 4.60204 4.61701C7.45556 1.76599 11.3766 0 15.6819 0H59.0533C60.0785 0 60.9889 0.488889 61.5651 1.24717L88.8506 30.7651C89.4093 31.3712 89.6837 32.1345 89.6837 32.8977L89.6912 62.7599C87.6508 62.2685 85.5456 61.9492 83.3905 61.8145V39.5526ZM26.0807 53.1442C24.3397 53.1442 22.9279 51.7324 22.9279 49.9914C22.9279 48.2478 24.3397 46.8361 26.0807 46.8361H63.6179C65.359 46.8361 66.7732 48.2478 66.7732 49.9914C66.7732 51.7324 65.359 53.1442 63.6179 53.1442H26.0807ZM26.0807 71.1782C24.3397 71.1782 22.9279 69.7664 22.9279 68.0229C22.9279 66.2819 24.3397 64.8701 26.0807 64.8701H61.6299C62.5553 64.8701 63.3884 65.2692 63.9671 65.9052C61.2179 67.3383 58.6588 69.1098 56.3494 71.1782H26.0807ZM26.0807 89.2122C24.3397 89.2122 22.9279 87.8005 22.9279 86.0569C22.9279 84.3159 24.3397 82.9041 26.0807 82.9041H47.5819C46.629 84.912 45.8483 87.0222 45.2646 89.2122H26.0807ZM79.7463 83.5052C81.5569 83.5058 83.3496 83.8635 85.0218 84.5578C86.7204 85.2562 88.2494 86.2864 89.5191 87.5585C90.7937 88.8281 91.8213 90.3521 92.5222 92.0408C93.1957 93.6771 93.5723 95.468 93.5723 97.3388C93.5723 98.7007 93.3728 100.03 92.9961 101.287C92.691 102.316 92.2648 103.305 91.7265 104.233L95.8921 108.815C96.2637 109.222 96.2363 109.86 95.8297 110.234L92.0009 113.732C91.8044 113.91 91.5454 114.004 91.2802 113.992C91.015 113.981 90.7649 113.866 90.5841 113.672L86.668 109.304C85.7474 109.838 84.7681 110.264 83.7497 110.574L83.7122 110.584C82.4254 110.969 81.0894 111.164 79.7463 111.165C77.8905 111.165 76.0995 110.786 74.4658 110.115C72.7861 109.417 71.2586 108.399 69.9685 107.117C68.6819 105.832 67.6613 104.306 66.9653 102.627C66.2713 100.95 65.9145 99.1533 65.9152 97.3388C65.9152 95.4805 66.2918 93.6921 66.9653 92.0558C67.6624 90.3752 68.6818 88.8474 69.966 87.5585C71.2381 86.2864 72.7596 85.2562 74.4508 84.5578C76.1293 83.8613 77.929 83.5036 79.7463 83.5052ZM85.8524 91.2277C85.0476 90.4232 84.0936 89.7835 83.0438 89.3444L82.9964 89.3245C81.9638 88.907 80.8601 88.6935 79.7463 88.6959C78.5689 88.6959 77.4515 88.9304 76.4438 89.3419C75.3943 89.7828 74.4405 90.4232 73.6351 91.2277C72.8314 92.0293 72.194 92.9818 71.7595 94.0306C71.325 95.0793 71.102 96.2036 71.1034 97.3388C71.1034 98.5136 71.3404 99.6336 71.7494 100.639C72.1959 101.694 72.8395 102.652 73.6327 103.445C74.4358 104.243 75.3862 104.894 76.4388 105.323C77.454 105.742 78.5714 105.977 79.7463 105.977C80.9211 105.977 82.0385 105.742 83.0463 105.323C84.0989 104.892 85.0567 104.238 85.8524 103.445C86.6456 102.652 87.2991 101.694 87.7306 100.639C88.1497 99.6311 88.3866 98.5111 88.3866 97.3388C88.3866 96.1614 88.1497 95.044 87.7306 94.0338L87.7132 93.9839C87.2791 92.9537 86.6406 92.0159 85.8524 91.2277Z" fill="#4F89CB"/>
</svg>
